<svg width="32" height="32" viewBox="0 0 32 32" fill="none" xmlns="http://www.w3.org/2000/svg">
  <!-- Brain shape -->
  <path d="M16 4C12 4 8 6 8 10C8 12 9 14 10 16C9 18 8 20 8 22C8 26 12 28 16 28C20 28 24 26 24 22C24 20 23 18 22 16C23 14 24 12 24 10C24 6 20 4 16 4Z" fill="#3B82F6"/>
  
  <!-- Brain details -->
  <path d="M12 8C12 6 13 5 14 5C15 5 16 6 16 7C16 8 15 9 14 9C13 9 12 8 12 8Z" fill="#1E40AF"/>
  <path d="M20 8C20 6 19 5 18 5C17 5 16 6 16 7C16 8 17 9 18 9C19 9 20 8 20 8Z" fill="#1E40AF"/>
  
  <!-- Brain wrinkles -->
  <path d="M10 12C10 11 11 10 12 10C13 10 14 11 14 12" stroke="#1E40AF" stroke-width="1" fill="none"/>
  <path d="M18 12C18 11 19 10 20 10C21 10 22 11 22 12" stroke="#1E40AF" stroke-width="1" fill="none"/>
  <path d="M8 16C8 15 9 14 10 14C11 14 12 15 12 16" stroke="#1E40AF" stroke-width="1" fill="none"/>
  <path d="M20 16C20 15 21 14 22 14C23 14 24 15 24 16" stroke="#1E40AF" stroke-width="1" fill="none"/>
  <path d="M10 20C10 19 11 18 12 18C13 18 14 19 14 20" stroke="#1E40AF" stroke-width="1" fill="none"/>
  <path d="M18 20C18 19 19 18 20 18C21 18 22 19 22 20" stroke="#1E40AF" stroke-width="1" fill="none"/>
</svg>
